<svg width="16" height="16" viewBox="0 0 16 16" fill="none" xmlns="http://www.w3.org/2000/svg">
<path d="M8.00004 12.6667C8.1319 12.6667 8.26079 12.6276 8.37042 12.5544C8.48005 12.4811 8.5655 12.377 8.61596 12.2552C8.66642 12.1334 8.67962 11.9993 8.6539 11.87C8.62817 11.7407 8.56468 11.6219 8.47145 11.5287C8.37821 11.4354 8.25942 11.3719 8.1301 11.3462C8.00078 11.3205 7.86674 11.3337 7.74492 11.3842C7.6231 11.4346 7.51898 11.5201 7.44573 11.6297C7.37247 11.7393 7.33337 11.8682 7.33337 12.0001C7.33337 12.1769 7.40361 12.3465 7.52864 12.4715C7.65366 12.5965 7.82323 12.6667 8.00004 12.6667ZM11.3334 12.6667C11.4652 12.6667 11.5941 12.6276 11.7038 12.5544C11.8134 12.4811 11.8988 12.377 11.9493 12.2552C11.9998 12.1334 12.013 11.9993 11.9872 11.87C11.9615 11.7407 11.898 11.6219 11.8048 11.5287C11.7115 11.4354 11.5928 11.3719 11.4634 11.3462C11.3341 11.3205 11.2001 11.3337 11.0783 11.3842C10.9564 11.4346 10.8523 11.5201 10.7791 11.6297C10.7058 11.7393 10.6667 11.8682 10.6667 12.0001C10.6667 12.1769 10.7369 12.3465 10.862 12.4715C10.987 12.5965 11.1566 12.6667 11.3334 12.6667ZM11.3334 10.0001C11.4652 10.0001 11.5941 9.96098 11.7038 9.88773C11.8134 9.81447 11.8988 9.71035 11.9493 9.58854C11.9998 9.46672 12.013 9.33267 11.9872 9.20335C11.9615 9.07403 11.898 8.95525 11.8048 8.86201C11.7115 8.76877 11.5928 8.70528 11.4634 8.67956C11.3341 8.65383 11.2001 8.66704 11.0783 8.71749C10.9564 8.76795 10.8523 8.8534 10.7791 8.96303C10.7058 9.07267 10.6667 9.20156 10.6667 9.33341C10.6667 9.51023 10.7369 9.67979 10.862 9.80482C10.987 9.92984 11.1566 10.0001 11.3334 10.0001ZM8.00004 10.0001C8.1319 10.0001 8.26079 9.96098 8.37042 9.88773C8.48005 9.81447 8.5655 9.71035 8.61596 9.58854C8.66642 9.46672 8.67962 9.33267 8.6539 9.20335C8.62817 9.07403 8.56468 8.95525 8.47145 8.86201C8.37821 8.76877 8.25942 8.70528 8.1301 8.67956C8.00078 8.65383 7.86674 8.66704 7.74492 8.71749C7.6231 8.76795 7.51898 8.8534 7.44573 8.96303C7.37247 9.07267 7.33337 9.20156 7.33337 9.33341C7.33337 9.51023 7.40361 9.67979 7.52864 9.80482C7.65366 9.92984 7.82323 10.0001 8.00004 10.0001ZM12.6667 2.00008H12V1.33341C12 1.1566 11.9298 0.987034 11.8048 0.86201C11.6798 0.736986 11.5102 0.666748 11.3334 0.666748C11.1566 0.666748 10.987 0.736986 10.862 0.86201C10.7369 0.987034 10.6667 1.1566 10.6667 1.33341V2.00008H5.33337V1.33341C5.33337 1.1566 5.26314 0.987034 5.13811 0.86201C5.01309 0.736986 4.84352 0.666748 4.66671 0.666748C4.4899 0.666748 4.32033 0.736986 4.1953 0.86201C4.07028 0.987034 4.00004 1.1566 4.00004 1.33341V2.00008H3.33337C2.80294 2.00008 2.29423 2.2108 1.91916 2.58587C1.54409 2.96094 1.33337 3.46965 1.33337 4.00008V13.3334C1.33337 13.8638 1.54409 14.3726 1.91916 14.7476C2.29423 15.1227 2.80294 15.3334 3.33337 15.3334H12.6667C13.1971 15.3334 13.7058 15.1227 14.0809 14.7476C14.456 14.3726 14.6667 13.8638 14.6667 13.3334V4.00008C14.6667 3.46965 14.456 2.96094 14.0809 2.58587C13.7058 2.2108 13.1971 2.00008 12.6667 2.00008ZM13.3334 13.3334C13.3334 13.5102 13.2631 13.6798 13.1381 13.8048C13.0131 13.9298 12.8435 14.0001 12.6667 14.0001H3.33337C3.15656 14.0001 2.98699 13.9298 2.86197 13.8048C2.73695 13.6798 2.66671 13.5102 2.66671 13.3334V7.33341H13.3334V13.3334ZM13.3334 6.00008H2.66671V4.00008C2.66671 3.82327 2.73695 3.6537 2.86197 3.52868C2.98699 3.40365 3.15656 3.33341 3.33337 3.33341H4.00004V4.00008C4.00004 4.17689 4.07028 4.34646 4.1953 4.47149C4.32033 4.59651 4.4899 4.66675 4.66671 4.66675C4.84352 4.66675 5.01309 4.59651 5.13811 4.47149C5.26314 4.34646 5.33337 4.17689 5.33337 4.00008V3.33341H10.6667V4.00008C10.6667 4.17689 10.7369 4.34646 10.862 4.47149C10.987 4.59651 11.1566 4.66675 11.3334 4.66675C11.5102 4.66675 11.6798 4.59651 11.8048 4.47149C11.9298 4.34646 12 4.17689 12 4.00008V3.33341H12.6667C12.8435 3.33341 13.0131 3.40365 13.1381 3.52868C13.2631 3.6537 13.3334 3.82327 13.3334 4.00008V6.00008ZM4.66671 10.0001C4.79856 10.0001 4.92745 9.96098 5.03709 9.88773C5.14672 9.81447 5.23217 9.71035 5.28263 9.58854C5.33309 9.46672 5.34629 9.33267 5.32056 9.20335C5.29484 9.07403 5.23135 8.95525 5.13811 8.86201C5.04488 8.76877 4.92609 8.70528 4.79677 8.67956C4.66745 8.65383 4.5334 8.66704 4.41159 8.71749C4.28977 8.76795 4.18565 8.8534 4.11239 8.96303C4.03914 9.07267 4.00004 9.20156 4.00004 9.33341C4.00004 9.51023 4.07028 9.67979 4.1953 9.80482C4.32033 9.92984 4.4899 10.0001 4.66671 10.0001ZM4.66671 12.6667C4.79856 12.6667 4.92745 12.6276 5.03709 12.5544C5.14672 12.4811 5.23217 12.377 5.28263 12.2552C5.33309 12.1334 5.34629 11.9993 5.32056 11.87C5.29484 11.7407 5.23135 11.6219 5.13811 11.5287C5.04488 11.4354 4.92609 11.3719 4.79677 11.3462C4.66745 11.3205 4.5334 11.3337 4.41159 11.3842C4.28977 11.4346 4.18565 11.5201 4.11239 11.6297C4.03914 11.7393 4.00004 11.8682 4.00004 12.0001C4.00004 12.1769 4.07028 12.3465 4.1953 12.4715C4.32033 12.5965 4.4899 12.6667 4.66671 12.6667Z" fill="#202020"/>
</svg>
