<svg width="16" height="16" viewBox="0 0 16 16" fill="none" xmlns="http://www.w3.org/2000/svg">
<path d="M14.1 1.90675C13.8452 1.64713 13.5223 1.4649 13.1683 1.38114C12.8144 1.29738 12.444 1.3155 12.1 1.43342L2.66662 4.58675C2.28616 4.71129 1.95374 4.95085 1.71525 5.27238C1.47676 5.5939 1.34396 5.98153 1.33518 6.38176C1.3264 6.78198 1.44208 7.17506 1.66624 7.50674C1.8904 7.83841 2.21199 8.09232 2.58662 8.23342L6.07995 9.56675C6.1595 9.59717 6.23192 9.64365 6.29271 9.7033C6.35351 9.76294 6.40136 9.83447 6.43328 9.91342L7.76662 13.4134C7.90234 13.7827 8.14863 14.1013 8.47193 14.3255C8.79523 14.5498 9.17981 14.669 9.57328 14.6668H9.61995C10.0206 14.6595 10.409 14.527 10.7306 14.2879C11.0522 14.0488 11.2909 13.715 11.4133 13.3334L14.5666 3.88675C14.6813 3.54605 14.6984 3.18005 14.6159 2.83014C14.5334 2.48024 14.3547 2.16039 14.1 1.90675ZM13.3333 3.46675L10.1466 12.9201C10.1096 13.0397 10.0353 13.1444 9.93454 13.2188C9.83377 13.2931 9.71185 13.3333 9.58662 13.3334C9.46212 13.3355 9.33995 13.2996 9.23635 13.2305C9.13274 13.1614 9.05262 13.0625 9.00662 12.9468L7.67329 9.44675C7.57662 9.19244 7.42754 8.9613 7.23574 8.76834C7.04393 8.57539 6.81369 8.42493 6.55995 8.32675L3.05995 6.99342C2.94188 6.95016 2.84039 6.87089 2.76981 6.76681C2.69923 6.66274 2.66313 6.53912 2.66662 6.41342C2.66672 6.28818 2.7069 6.16627 2.78127 6.0655C2.85564 5.96474 2.96031 5.89042 3.07995 5.85342L12.5333 2.70009C12.6418 2.65585 12.7608 2.644 12.876 2.66597C12.9911 2.68794 13.0974 2.74279 13.182 2.82388C13.2666 2.90497 13.3259 3.00884 13.3528 3.12293C13.3796 3.23702 13.3729 3.35644 13.3333 3.46675Z" fill="#202020"/>
</svg>
