<svg width="19" height="20" viewBox="0 0 19 20" fill="none" xmlns="http://www.w3.org/2000/svg">
<path d="M17.3333 11.3332H10.6667V17.9998C10.6667 18.3535 10.5262 18.6926 10.2761 18.9426C10.0261 19.1927 9.68695 19.3332 9.33333 19.3332C8.97971 19.3332 8.64057 19.1927 8.39052 18.9426C8.14048 18.6926 8 18.3535 8 17.9998V11.3332H1.33333C0.979711 11.3332 0.640573 11.1927 0.390524 10.9426C0.140476 10.6926 0 10.3535 0 9.99984C0 9.64621 0.140476 9.30708 0.390524 9.05703C0.640573 8.80698 0.979711 8.6665 1.33333 8.6665H8V1.99984C8 1.64622 8.14048 1.30708 8.39052 1.05703C8.64057 0.806979 8.97971 0.666504 9.33333 0.666504C9.68695 0.666504 10.0261 0.806979 10.2761 1.05703C10.5262 1.30708 10.6667 1.64622 10.6667 1.99984V8.6665H17.3333C17.687 8.6665 18.0261 8.80698 18.2761 9.05703C18.5262 9.30708 18.6667 9.64621 18.6667 9.99984C18.6667 10.3535 18.5262 10.6926 18.2761 10.9426C18.0261 11.1927 17.687 11.3332 17.3333 11.3332Z" fill="#BD202E"/>
</svg>
